<?xml version="1.0" encoding="UTF-8"?>
<svg xmlns="http://www.w3.org/2000/svg" xmlns:xlink="http://www.w3.org/1999/xlink" width="16px" height="16px" viewBox="0 0 16 16" version="1.1">
<g id="surface1">
<path style=" stroke:none;fill-rule:nonzero;fill:rgb(0%,0%,0%);fill-opacity:1;" d="M 7.546875 0.78125 C 6.90625 0.882812 6.285156 1.175781 5.835938 1.585938 C 5.683594 1.730469 5.65625 1.773438 5.65625 1.863281 C 5.65625 2.109375 5.886719 2.167969 6.101562 1.976562 C 6.503906 1.613281 6.824219 1.441406 7.375 1.292969 C 7.523438 1.253906 7.695312 1.238281 8 1.238281 C 8.757812 1.238281 9.320312 1.453125 9.898438 1.976562 C 10.113281 2.167969 10.34375 2.109375 10.34375 1.863281 C 10.34375 1.773438 10.316406 1.730469 10.164062 1.585938 C 9.617188 1.085938 8.886719 0.789062 8.109375 0.765625 C 7.902344 0.757812 7.648438 0.765625 7.546875 0.78125 Z M 7.546875 0.78125 "/>
<path style=" stroke:none;fill-rule:nonzero;fill:rgb(0%,0%,0%);fill-opacity:1;" d="M 7.609375 2.042969 C 7.226562 2.132812 6.886719 2.308594 6.648438 2.542969 C 6.476562 2.710938 6.492188 2.898438 6.683594 2.960938 C 6.789062 3 6.882812 2.960938 7.054688 2.8125 C 7.289062 2.601562 7.621094 2.492188 8 2.492188 C 8.378906 2.492188 8.710938 2.601562 8.945312 2.8125 C 9.117188 2.960938 9.210938 3 9.316406 2.960938 C 9.511719 2.894531 9.523438 2.710938 9.335938 2.53125 C 8.914062 2.125 8.171875 1.914062 7.609375 2.042969 Z M 7.609375 2.042969 "/>
<path style=" stroke:none;fill-rule:nonzero;fill:rgb(0%,0%,0%);fill-opacity:1;" d="M 7.789062 3.292969 C 7.617188 3.351562 7.472656 3.457031 7.433594 3.554688 C 7.390625 3.667969 7.449219 3.796875 7.566406 3.847656 C 7.648438 3.878906 7.679688 3.875 7.828125 3.796875 L 8 3.710938 L 8.171875 3.796875 C 8.320312 3.875 8.351562 3.878906 8.433594 3.847656 C 8.550781 3.796875 8.609375 3.667969 8.566406 3.554688 C 8.527344 3.453125 8.378906 3.347656 8.195312 3.292969 C 8.023438 3.242188 7.960938 3.242188 7.789062 3.292969 Z M 7.789062 3.292969 "/>
<path style=" stroke:none;fill-rule:nonzero;fill:rgb(0%,0%,0%);fill-opacity:1;" d="M 7.875 4.519531 C 7.546875 4.570312 7.367188 4.664062 7.132812 4.882812 C 6.835938 5.171875 6.753906 5.472656 6.75 6.226562 C 6.75 6.710938 6.710938 6.84375 6.523438 7.023438 C 6.464844 7.074219 5.085938 8.058594 3.453125 9.207031 C 1.820312 10.351562 0.429688 11.335938 0.363281 11.394531 C 0.0390625 11.671875 0 11.828125 0 12.945312 C 0 13.757812 0.00390625 13.824219 0.0625 13.9375 C 0.136719 14.085938 0.316406 14.1875 0.492188 14.1875 C 0.554688 14.1875 0.96875 14.125 1.40625 14.046875 C 1.84375 13.96875 2.210938 13.90625 2.226562 13.90625 C 2.242188 13.90625 2.25 13.933594 2.25 13.96875 C 2.25 14.070312 2.316406 14.179688 2.398438 14.214844 C 2.507812 14.265625 2.554688 14.257812 2.640625 14.171875 C 2.699219 14.117188 2.71875 14.0625 2.71875 13.953125 C 2.71875 13.875 2.726562 13.8125 2.738281 13.8125 C 2.75 13.8125 3.570312 13.671875 4.5625 13.5 C 5.554688 13.328125 6.414062 13.1875 6.476562 13.1875 C 6.761719 13.1875 7 13.351562 7.195312 13.6875 C 7.304688 13.871094 7.492188 14 7.664062 14 L 7.75 14 L 7.75 14.53125 L 7.085938 14.53125 C 6.585938 14.535156 6.410156 14.542969 6.367188 14.574219 C 6.234375 14.675781 6.25 14.898438 6.394531 14.964844 C 6.445312 14.988281 6.703125 15 7.125 15 C 7.753906 15 7.78125 15.003906 7.78125 15.058594 C 7.78125 15.128906 7.917969 15.25 8 15.25 C 8.082031 15.25 8.21875 15.128906 8.21875 15.058594 C 8.21875 15.003906 8.246094 15 8.875 15 C 9.296875 15 9.554688 14.988281 9.605469 14.964844 C 9.75 14.898438 9.765625 14.675781 9.632812 14.574219 C 9.589844 14.542969 9.414062 14.535156 8.914062 14.53125 L 8.25 14.53125 L 8.25 14 L 8.335938 14 C 8.507812 14 8.695312 13.871094 8.804688 13.6875 C 9 13.351562 9.238281 13.1875 9.523438 13.1875 C 9.585938 13.1875 10.171875 13.28125 10.835938 13.394531 C 12.132812 13.621094 12.15625 13.621094 12.222656 13.445312 C 12.261719 13.335938 12.207031 13.195312 12.105469 13.15625 C 12.066406 13.140625 11.492188 13.035156 10.835938 12.917969 C 9.902344 12.757812 9.59375 12.714844 9.429688 12.726562 C 9.039062 12.753906 8.65625 13.003906 8.449219 13.367188 L 8.359375 13.53125 L 7.640625 13.53125 L 7.550781 13.367188 C 7.34375 13.003906 6.960938 12.753906 6.570312 12.726562 C 6.398438 12.714844 6.011719 12.773438 4.625 13.011719 C 3.671875 13.179688 2.851562 13.320312 2.804688 13.332031 L 2.71875 13.351562 L 2.71875 10.296875 L 4.742188 8.875 C 5.851562 8.09375 6.816406 7.398438 6.882812 7.328125 C 6.953125 7.257812 7.054688 7.113281 7.105469 7 C 7.203125 6.800781 7.203125 6.789062 7.222656 6.1875 C 7.234375 5.664062 7.246094 5.554688 7.304688 5.4375 C 7.378906 5.265625 7.574219 5.085938 7.738281 5.027344 C 8.007812 4.9375 8.304688 4.996094 8.507812 5.183594 C 8.726562 5.382812 8.757812 5.492188 8.777344 6.1875 C 8.796875 6.789062 8.796875 6.800781 8.894531 7 C 8.945312 7.113281 9.046875 7.257812 9.117188 7.328125 C 9.183594 7.398438 10.148438 8.09375 11.257812 8.875 L 13.28125 10.296875 L 13.28125 13.335938 L 13.101562 13.320312 C 12.9375 13.304688 12.910156 13.3125 12.851562 13.378906 C 12.78125 13.449219 12.761719 13.542969 12.800781 13.640625 C 12.828125 13.710938 12.957031 13.769531 13.132812 13.792969 L 13.28125 13.816406 L 13.28125 13.957031 C 13.28125 14.0625 13.300781 14.117188 13.359375 14.171875 C 13.445312 14.257812 13.492188 14.265625 13.601562 14.214844 C 13.683594 14.179688 13.75 14.070312 13.75 13.96875 C 13.75 13.933594 13.757812 13.90625 13.773438 13.90625 C 13.789062 13.90625 14.15625 13.96875 14.59375 14.046875 C 15.03125 14.125 15.445312 14.1875 15.515625 14.1875 C 15.6875 14.1875 15.84375 14.097656 15.929688 13.949219 C 15.996094 13.832031 16 13.800781 16 12.953125 C 16 11.824219 15.960938 11.671875 15.636719 11.394531 C 15.570312 11.335938 14.179688 10.351562 12.546875 9.207031 C 10.914062 8.058594 9.535156 7.074219 9.476562 7.023438 C 9.289062 6.84375 9.25 6.710938 9.25 6.226562 C 9.25 5.695312 9.214844 5.460938 9.109375 5.226562 C 8.976562 4.929688 8.660156 4.65625 8.34375 4.566406 C 8.203125 4.527344 7.976562 4.503906 7.875 4.519531 Z M 2.25 12.023438 L 2.25 13.425781 L 1.398438 13.570312 C 0.929688 13.652344 0.527344 13.71875 0.507812 13.71875 C 0.476562 13.71875 0.46875 13.53125 0.46875 12.882812 C 0.46875 12.117188 0.476562 12.035156 0.527344 11.929688 C 0.5625 11.863281 0.628906 11.777344 0.675781 11.742188 C 0.757812 11.675781 2.226562 10.632812 2.242188 10.628906 C 2.246094 10.625 2.25 11.257812 2.25 12.023438 Z M 15.324219 11.742188 C 15.371094 11.777344 15.4375 11.863281 15.472656 11.929688 C 15.523438 12.035156 15.53125 12.117188 15.53125 12.882812 C 15.53125 13.53125 15.523438 13.71875 15.492188 13.71875 C 15.472656 13.71875 15.070312 13.652344 14.601562 13.570312 L 13.75 13.425781 L 13.75 10.628906 L 14.492188 11.148438 C 14.902344 11.4375 15.273438 11.703125 15.324219 11.742188 Z M 15.324219 11.742188 "/>
<path style=" stroke:none;fill-rule:nonzero;fill:rgb(0%,0%,0%);fill-opacity:1;" d="M 7.914062 5.398438 C 7.875 5.402344 7.804688 5.453125 7.75 5.503906 C 7.675781 5.582031 7.65625 5.625 7.65625 5.742188 C 7.65625 5.859375 7.671875 5.898438 7.761719 5.988281 C 7.851562 6.074219 7.894531 6.09375 8 6.09375 C 8.105469 6.09375 8.148438 6.074219 8.238281 5.988281 C 8.328125 5.898438 8.34375 5.859375 8.34375 5.742188 C 8.34375 5.625 8.328125 5.582031 8.246094 5.503906 C 8.195312 5.449219 8.132812 5.40625 8.109375 5.40625 C 8.085938 5.40625 8.050781 5.398438 8.023438 5.394531 C 8.003906 5.386719 7.953125 5.390625 7.914062 5.398438 Z M 7.914062 5.398438 "/>
<path style=" stroke:none;fill-rule:nonzero;fill:rgb(0%,0%,0%);fill-opacity:1;" d="M 6.824219 8.097656 C 6.769531 8.160156 6.765625 8.242188 6.765625 10.128906 L 6.765625 12.089844 L 6.835938 12.160156 C 6.917969 12.242188 7.070312 12.25 7.15625 12.171875 C 7.21875 12.117188 7.21875 12.082031 7.21875 10.132812 C 7.21875 8.195312 7.21875 8.15625 7.15625 8.09375 C 7.070312 8.007812 6.902344 8.011719 6.824219 8.097656 Z M 6.824219 8.097656 "/>
<path style=" stroke:none;fill-rule:nonzero;fill:rgb(0%,0%,0%);fill-opacity:1;" d="M 8.84375 8.09375 C 8.78125 8.15625 8.78125 8.195312 8.78125 10.132812 C 8.78125 12.082031 8.78125 12.117188 8.84375 12.171875 C 8.929688 12.25 9.082031 12.242188 9.164062 12.160156 L 9.234375 12.089844 L 9.234375 10.128906 C 9.234375 8.242188 9.230469 8.160156 9.175781 8.097656 C 9.097656 8.011719 8.929688 8.007812 8.84375 8.09375 Z M 8.84375 8.09375 "/>
</g>
</svg>
