<?xml version="1.0" encoding="UTF-8"?>
<svg xmlns="http://www.w3.org/2000/svg" xmlns:xlink="http://www.w3.org/1999/xlink" width="48px" height="26px" viewBox="0 0 47 26" version="1.1">
<g id="surface1">
<path style=" stroke:none;fill-rule:nonzero;fill:rgb(0%,0%,0%);fill-opacity:1;" d="M 11.289062 6.023438 C 10.695312 8.347656 10.652344 8.542969 10.664062 9.617188 L 10.664062 10.765625 L 18.308594 10.765625 L 18.308594 11.375 L 13.679688 11.375 L 13.679688 12.796875 L 10.261719 12.796875 L 10.261719 11.375 L 4.226562 11.375 L 4.226562 13.203125 L 1.226562 13.203125 L 1.226562 13.660156 C 1.226562 13.933594 1.265625 14.117188 1.339844 14.128906 C 1.410156 14.128906 2.707031 14.128906 4.226562 14.117188 C 5.746094 14.105469 7.113281 14.128906 7.261719 14.167969 C 7.453125 14.21875 7.535156 14.300781 7.523438 14.453125 C 7.523438 14.574219 7.523438 14.738281 7.535156 14.808594 C 7.546875 14.910156 8.160156 14.929688 10.441406 14.929688 C 12.03125 14.929688 13.390625 14.929688 13.460938 14.929688 C 13.519531 14.929688 13.582031 15 13.582031 15.082031 C 13.582031 15.214844 13.039062 15.234375 9.324219 15.234375 C 5.3125 15.234375 5.03125 15.246094 4.464844 15.4375 C 3.710938 15.703125 2.9375 16.238281 2.617188 16.726562 C 2.414062 17.03125 2.363281 17.226562 2.363281 17.761719 C 2.363281 18.699219 2.625 19.113281 4.617188 21.378906 L 6.277344 23.257812 L 34.9375 23.257812 L 35.269531 22.902344 C 36.859375 21.195312 38.449219 19.328125 38.640625 18.929688 C 38.761719 18.667969 38.890625 18.210938 38.910156 17.914062 C 39.003906 16.871094 38.175781 15.925781 36.777344 15.4375 C 36.214844 15.246094 35.933594 15.234375 32.019531 15.234375 C 28.238281 15.234375 27.855469 15.214844 27.886719 15.070312 C 27.917969 14.917969 28.296875 14.910156 31.539062 14.890625 C 34.527344 14.878906 35.160156 14.859375 35.128906 14.738281 C 35.121094 14.664062 35.128906 14.511719 35.160156 14.410156 C 35.21875 14.230469 35.351562 14.21875 37.472656 14.21875 L 39.714844 14.21875 L 39.695312 13.558594 L 39.6875 12.898438 L 36.71875 12.898438 L 36.71875 11.375 L 24.949219 11.375 L 24.949219 10.683594 L 27.070312 10.683594 C 28.238281 10.683594 29.195312 10.664062 29.203125 10.644531 C 29.222656 10.632812 29.386719 10.277344 29.578125 9.871094 L 29.917969 9.140625 L 31.386719 9.140625 L 31.386719 8.53125 L 41.144531 8.53125 L 41.144531 9.140625 L 45.824219 9.140625 L 45.824219 6.601562 L 41.144531 6.601562 L 41.144531 7.160156 L 31.386719 7.160156 L 31.386719 6.601562 L 29.375 6.601562 L 27.160156 5.484375 L 24.949219 4.367188 L 22.132812 4.367188 L 22.132812 3.554688 L 11.921875 3.554688 Z M 8.832031 17.113281 C 9.65625 17.46875 10.101562 18.199219 10.039062 19.105469 C 9.988281 19.804688 9.65625 20.300781 9.035156 20.628906 C 7.847656 21.238281 6.40625 20.464844 6.265625 19.144531 C 6.105469 17.703125 7.535156 16.574219 8.832031 17.113281 Z M 15.292969 17.203125 C 15.582031 17.355469 15.835938 17.589844 16.015625 17.886719 C 16.539062 18.738281 16.4375 19.5625 15.734375 20.273438 C 14.738281 21.289062 13.1875 20.933594 12.636719 19.582031 C 11.960938 17.976562 13.730469 16.390625 15.292969 17.203125 Z M 21.308594 17.113281 C 22.121094 17.457031 22.585938 18.199219 22.515625 19.054688 C 22.363281 20.882812 20.089844 21.5 19.042969 19.988281 C 17.996094 18.464844 19.617188 16.402344 21.308594 17.113281 Z M 27.613281 17.152344 C 28.378906 17.507812 28.769531 18.117188 28.769531 18.953125 C 28.769531 20.128906 27.625 21.074219 26.496094 20.820312 C 24.667969 20.402344 24.40625 17.945312 26.105469 17.152344 C 26.617188 16.910156 27.101562 16.910156 27.613281 17.152344 Z M 33.710938 17.082031 C 34.757812 17.449219 35.28125 18.535156 34.929688 19.613281 C 34.585938 20.628906 33.199219 21.164062 32.242188 20.636719 C 31.730469 20.363281 31.1875 19.5 31.1875 18.972656 C 31.1875 18.210938 31.617188 17.519531 32.324219 17.175781 C 32.796875 16.929688 33.207031 16.910156 33.710938 17.082031 Z M 33.710938 17.082031 "/>
</g>
</svg>
