<?xml version="1.0" encoding="UTF-8"?>
<svg xmlns="http://www.w3.org/2000/svg" xmlns:xlink="http://www.w3.org/1999/xlink" width="32px" height="16px" viewBox="0 0 32 16" version="1.1">
<g id="surface1">
<path style=" stroke:none;fill-rule:nonzero;fill:rgb(0%,0%,0%);fill-opacity:1;" d="M 10.3125 0.5625 C 10.226562 0.648438 10.1875 0.769531 10.1875 0.960938 L 10.1875 1.238281 L 9.550781 1.261719 C 9.03125 1.28125 8.851562 1.3125 8.613281 1.4375 C 7.636719 1.925781 7.417969 3.15625 8.148438 3.980469 C 8.238281 4.082031 8.46875 4.242188 8.664062 4.34375 L 9.019531 4.53125 L 6.394531 4.5625 C 4.292969 4.585938 3.75 4.613281 3.667969 4.679688 C 3.574219 4.757812 3.5625 4.960938 3.5625 6.449219 L 3.5625 8.132812 L 3.195312 8.488281 C 2.992188 8.679688 2.800781 8.90625 2.757812 8.980469 C 2.710938 9.070312 2.6875 9.554688 2.6875 10.394531 C 2.6875 11.863281 2.625 11.6875 3.40625 12.460938 L 3.851562 12.90625 L 3.925781 12.386719 C 4.09375 11.144531 4.976562 10.082031 6.167969 9.679688 C 6.507812 9.570312 6.730469 9.542969 7.28125 9.542969 C 8.050781 9.542969 8.457031 9.648438 9.011719 10.007812 L 9.320312 10.207031 L 9.617188 10.019531 C 9.789062 9.914062 10.113281 9.761719 10.351562 9.679688 C 11.117188 9.414062 12.335938 9.5 12.9375 9.863281 C 13.582031 10.25 13.894531 10.523438 14.1875 10.957031 C 14.3125 11.144531 14.382812 11.1875 14.542969 11.1875 C 14.710938 11.1875 14.773438 11.144531 14.9375 10.90625 C 15.320312 10.351562 15.867188 9.945312 16.601562 9.675781 C 17.101562 9.492188 18.105469 9.480469 18.65625 9.648438 C 19.03125 9.769531 19.574219 10.042969 19.613281 10.136719 C 19.644531 10.199219 19.875 10.207031 19.875 10.136719 C 19.875 10.082031 20.445312 9.789062 20.84375 9.648438 C 21.320312 9.480469 22.40625 9.492188 22.898438 9.675781 C 23.667969 9.957031 24.195312 10.355469 24.613281 10.988281 C 25.082031 11.695312 25.21875 12.1875 25.175781 13.0625 C 25.15625 13.40625 25.164062 13.6875 25.1875 13.6875 C 25.242188 13.6875 25.644531 13.367188 26 13.042969 C 26.257812 12.804688 26.949219 12.1875 27.492188 11.710938 C 27.605469 11.613281 27.773438 11.460938 27.867188 11.375 C 27.960938 11.289062 28.230469 11.050781 28.46875 10.84375 C 28.710938 10.636719 29 10.382812 29.105469 10.273438 L 29.3125 10.074219 L 29.3125 9.167969 C 29.3125 8.667969 29.292969 8.210938 29.273438 8.164062 C 29.242188 8.082031 28.09375 7.257812 27.519531 6.90625 C 27.460938 6.867188 27.101562 6.625 26.707031 6.355469 C 26.3125 6.09375 25.980469 5.875 25.96875 5.875 C 25.957031 5.875 25.617188 5.648438 25.21875 5.375 C 24.820312 5.101562 24.480469 4.875 24.46875 4.875 C 24.457031 4.875 24.335938 4.804688 24.210938 4.71875 L 23.980469 4.5625 L 14.167969 4.5625 L 14.507812 4.324219 C 14.96875 4.007812 15.144531 3.664062 15.101562 3.167969 L 15.0625 2.8125 L 17.6875 2.8125 L 17.6875 3.09375 C 17.6875 3.3125 17.726562 3.417969 17.84375 3.53125 C 17.992188 3.6875 17.992188 3.6875 19.34375 3.6875 C 21.070312 3.6875 20.9375 3.789062 20.9375 2.449219 C 20.9375 1.570312 20.925781 1.445312 20.824219 1.355469 C 20.726562 1.261719 20.523438 1.25 19.335938 1.25 C 18.585938 1.25 17.9375 1.273438 17.898438 1.300781 C 17.78125 1.382812 17.6875 1.613281 17.6875 1.835938 L 17.6875 2.0625 L 10.9375 2.0625 L 10.9375 1.351562 C 10.9375 0.78125 10.917969 0.613281 10.835938 0.539062 C 10.707031 0.398438 10.460938 0.414062 10.3125 0.5625 Z M 24.117188 6.242188 C 24.59375 6.488281 25.03125 6.726562 25.085938 6.78125 C 25.175781 6.867188 25.1875 7.054688 25.1875 8.070312 C 25.1875 9.242188 25.1875 9.257812 25.03125 9.40625 C 24.949219 9.492188 24.835938 9.5625 24.789062 9.5625 C 24.730469 9.5625 24.304688 9.375 23.832031 9.136719 L 22.976562 8.71875 L 21.875 8.710938 C 20.257812 8.699219 20.324219 8.707031 20.242188 8.550781 C 20.179688 8.4375 20.148438 7.132812 20.179688 6.175781 C 20.195312 5.824219 20.25 5.8125 21.820312 5.8125 L 23.25 5.8125 Z M 7.53125 6.34375 C 7.617188 6.425781 7.6875 6.554688 7.6875 6.625 C 7.6875 6.695312 7.617188 6.824219 7.53125 6.90625 C 7.386719 7.054688 7.355469 7.0625 6.425781 7.0625 C 5.300781 7.0625 5.1875 7.023438 5.1875 6.625 C 5.1875 6.226562 5.300781 6.1875 6.425781 6.1875 C 7.355469 6.1875 7.386719 6.195312 7.53125 6.34375 Z M 10.78125 6.261719 C 10.957031 6.34375 11.03125 6.542969 10.976562 6.769531 C 10.917969 7.011719 10.6875 7.0625 9.726562 7.0625 C 8.914062 7.0625 8.8125 7.050781 8.664062 6.929688 C 8.554688 6.851562 8.5 6.742188 8.5 6.625 C 8.5 6.507812 8.554688 6.398438 8.664062 6.320312 C 8.8125 6.199219 8.914062 6.1875 9.726562 6.1875 C 10.273438 6.1875 10.679688 6.21875 10.78125 6.261719 Z M 15.03125 6.34375 C 15.117188 6.425781 15.1875 6.554688 15.1875 6.625 C 15.1875 6.695312 15.117188 6.824219 15.03125 6.90625 C 14.886719 7.054688 14.855469 7.0625 13.925781 7.0625 C 12.800781 7.0625 12.6875 7.023438 12.6875 6.625 C 12.6875 6.226562 12.800781 6.1875 13.925781 6.1875 C 14.855469 6.1875 14.886719 6.195312 15.03125 6.34375 Z M 18.28125 6.261719 C 18.457031 6.34375 18.53125 6.542969 18.476562 6.769531 C 18.417969 7.011719 18.1875 7.0625 17.226562 7.0625 C 16.414062 7.0625 16.3125 7.050781 16.164062 6.929688 C 15.945312 6.757812 15.945312 6.492188 16.164062 6.320312 C 16.3125 6.199219 16.414062 6.1875 17.226562 6.1875 C 17.773438 6.1875 18.179688 6.21875 18.28125 6.261719 Z M 18.28125 6.261719 "/>
<path style=" stroke:none;fill-rule:nonzero;fill:rgb(0%,0%,0%);fill-opacity:1;" d="M 21 7.25 L 21 7.875 L 23.210938 7.875 L 23.761719 8.15625 L 24.320312 8.4375 L 24.300781 7.867188 L 24.28125 7.300781 L 23.625 6.960938 L 22.96875 6.625 L 21 6.625 Z M 21 7.25 "/>
<path style=" stroke:none;fill-rule:nonzero;fill:rgb(0%,0%,0%);fill-opacity:1;" d="M 6.53125 10.523438 C 5.894531 10.738281 5.324219 11.242188 5.019531 11.867188 C 4.863281 12.179688 4.84375 12.289062 4.84375 12.875 C 4.84375 13.46875 4.863281 13.5625 5.019531 13.894531 C 5.257812 14.375 5.757812 14.875 6.21875 15.101562 C 6.554688 15.261719 6.65625 15.28125 7.25 15.28125 C 7.84375 15.28125 7.945312 15.261719 8.273438 15.105469 C 8.476562 15.007812 8.800781 14.773438 8.988281 14.585938 C 9.179688 14.398438 9.34375 14.25 9.351562 14.25 C 9.363281 14.25 9.5 14.394531 9.664062 14.5625 C 9.835938 14.75 10.117188 14.957031 10.367188 15.082031 C 10.75 15.269531 10.820312 15.28125 11.4375 15.28125 C 12.042969 15.28125 12.125 15.269531 12.460938 15.09375 C 12.96875 14.835938 13.414062 14.386719 13.648438 13.882812 C 13.824219 13.507812 13.84375 13.414062 13.84375 12.875 C 13.84375 12.335938 13.824219 12.242188 13.648438 11.867188 C 13.40625 11.363281 12.96875 10.914062 12.460938 10.65625 C 12.125 10.480469 12.042969 10.46875 11.4375 10.46875 C 10.820312 10.46875 10.75 10.480469 10.367188 10.667969 C 10.117188 10.792969 9.835938 11 9.664062 11.1875 C 9.5 11.355469 9.363281 11.5 9.351562 11.5 C 9.34375 11.5 9.179688 11.351562 8.988281 11.164062 C 8.480469 10.667969 8.042969 10.480469 7.34375 10.457031 C 6.992188 10.445312 6.6875 10.46875 6.53125 10.523438 Z M 7.8125 11.761719 C 7.976562 11.851562 8.167969 12.019531 8.28125 12.175781 C 8.445312 12.414062 8.46875 12.5 8.46875 12.875 C 8.46875 13.25 8.445312 13.335938 8.28125 13.574219 C 7.695312 14.417969 6.382812 14.242188 6.0625 13.273438 C 5.800781 12.488281 6.417969 11.625 7.25 11.625 C 7.425781 11.625 7.644531 11.679688 7.8125 11.761719 Z M 12.039062 11.792969 C 12.398438 11.980469 12.65625 12.417969 12.65625 12.875 C 12.65625 14.3125 10.574219 14.585938 10.210938 13.195312 C 9.9375 12.125 11.042969 11.273438 12.039062 11.792969 Z M 12.039062 11.792969 "/>
<path style=" stroke:none;fill-rule:nonzero;fill:rgb(0%,0%,0%);fill-opacity:1;" d="M 7.105469 12.480469 C 7.050781 12.492188 6.957031 12.59375 6.90625 12.695312 C 6.820312 12.855469 6.820312 12.894531 6.898438 13.054688 C 7.0625 13.367188 7.4375 13.367188 7.601562 13.054688 C 7.679688 12.894531 7.679688 12.855469 7.59375 12.6875 C 7.539062 12.582031 7.46875 12.5 7.445312 12.5 C 7.414062 12.5 7.351562 12.488281 7.300781 12.476562 C 7.257812 12.460938 7.167969 12.460938 7.105469 12.480469 Z M 7.105469 12.480469 "/>
<path style=" stroke:none;fill-rule:nonzero;fill:rgb(0%,0%,0%);fill-opacity:1;" d="M 11.269531 12.507812 C 11.007812 12.605469 10.929688 12.898438 11.113281 13.125 C 11.25 13.292969 11.519531 13.304688 11.6875 13.15625 C 12 12.875 11.664062 12.355469 11.269531 12.507812 Z M 11.269531 12.507812 "/>
<path style=" stroke:none;fill-rule:nonzero;fill:rgb(0%,0%,0%);fill-opacity:1;" d="M 16.957031 10.53125 C 16.074219 10.804688 15.449219 11.511719 15.25 12.460938 C 15.085938 13.242188 15.414062 14.148438 16.0625 14.730469 C 16.148438 14.8125 16.398438 14.960938 16.613281 15.074219 C 16.945312 15.238281 17.105469 15.273438 17.539062 15.300781 C 18.324219 15.34375 18.90625 15.105469 19.480469 14.519531 C 19.585938 14.40625 19.707031 14.3125 19.75 14.3125 C 19.789062 14.3125 19.929688 14.429688 20.074219 14.570312 C 20.648438 15.136719 21.179688 15.34375 21.96875 15.300781 C 23.144531 15.238281 24.019531 14.457031 24.257812 13.257812 C 24.375 12.644531 24.199219 11.957031 23.78125 11.40625 C 23.507812 11.042969 23.332031 10.898438 22.886719 10.675781 C 22.5625 10.511719 22.394531 10.476562 21.96875 10.449219 C 21.179688 10.40625 20.648438 10.613281 20.074219 11.179688 C 19.929688 11.320312 19.789062 11.4375 19.75 11.4375 C 19.707031 11.4375 19.585938 11.34375 19.480469 11.230469 C 18.9375 10.675781 18.382812 10.4375 17.664062 10.445312 C 17.417969 10.445312 17.101562 10.480469 16.957031 10.53125 Z M 18.25 11.773438 C 18.886719 12.09375 19.101562 12.914062 18.71875 13.539062 C 18.289062 14.230469 17.304688 14.320312 16.738281 13.710938 C 16.519531 13.476562 16.4375 13.25 16.4375 12.875 C 16.4375 12.5 16.519531 12.273438 16.738281 12.039062 C 17.125 11.625 17.75 11.511719 18.25 11.773438 Z M 22.34375 11.742188 C 22.824219 11.96875 23.0625 12.335938 23.0625 12.875 C 23.0625 13.25 22.980469 13.476562 22.761719 13.710938 C 22.195312 14.320312 21.210938 14.230469 20.78125 13.53125 C 20.136719 12.488281 21.230469 11.230469 22.34375 11.742188 Z M 22.34375 11.742188 "/>
<path style=" stroke:none;fill-rule:nonzero;fill:rgb(0%,0%,0%);fill-opacity:1;" d="M 17.519531 12.507812 C 17.257812 12.605469 17.179688 12.898438 17.363281 13.125 C 17.5 13.292969 17.769531 13.304688 17.9375 13.15625 C 18.25 12.875 17.914062 12.355469 17.519531 12.507812 Z M 17.519531 12.507812 "/>
<path style=" stroke:none;fill-rule:nonzero;fill:rgb(0%,0%,0%);fill-opacity:1;" d="M 21.75 12.488281 C 21.289062 12.632812 21.375 13.261719 21.855469 13.261719 C 22.039062 13.261719 22.25 13.054688 22.25 12.882812 C 22.25 12.636719 21.96875 12.417969 21.75 12.488281 Z M 21.75 12.488281 "/>
</g>
</svg>
