<?xml version="1.0" encoding="UTF-8"?>
<svg xmlns="http://www.w3.org/2000/svg" xmlns:xlink="http://www.w3.org/1999/xlink" width="32px" height="29px" viewBox="0 0 32 29" version="1.1">
<g id="surface1">
<path style=" stroke:none;fill-rule:nonzero;fill:rgb(0%,0%,0%);fill-opacity:1;" d="M 22.128906 3.472656 C 20.804688 4.28125 18.488281 5.972656 17.847656 6.597656 L 17.628906 6.8125 L 17.558594 6.726562 C 17.378906 6.507812 16.847656 5.929688 16.832031 5.929688 C 16.8125 5.929688 15.527344 7.089844 15.292969 7.3125 C 15.230469 7.375 15.125 7.46875 15.054688 7.523438 C 14.988281 7.574219 14.828125 7.71875 14.703125 7.847656 C 14.578125 7.96875 14.429688 8.109375 14.367188 8.15625 C 14.308594 8.203125 13.558594 8.875 12.703125 9.648438 L 11.152344 11.050781 L 10.753906 11.050781 L 10.757812 11.894531 L 10.769531 12.742188 L 10.984375 12.742188 C 11.105469 12.742188 11.199219 12.75 11.199219 12.761719 C 11.199219 12.773438 10.875 13.085938 10.480469 13.453125 C 10.082031 13.820312 9.761719 14.125 9.761719 14.132812 C 9.761719 14.140625 10.296875 14.738281 10.65625 15.121094 C 10.703125 15.175781 10.753906 15.136719 11.539062 14.402344 C 11.992188 13.976562 12.421875 13.582031 12.488281 13.527344 L 12.609375 13.429688 L 12.609375 15.757812 L 9.601562 15.757812 L 9.601562 17.785156 L 10.144531 17.785156 L 10.144531 18.011719 L 7.902344 18.011719 L 7.210938 18.285156 L 6.523438 18.558594 L 4.511719 18.558594 L 4.511719 19.140625 L 4.742188 19.140625 C 4.886719 19.140625 4.960938 19.152344 4.941406 19.167969 C 4.925781 19.183594 4.726562 19.273438 4.496094 19.363281 L 4.078125 19.527344 L 2.894531 19.527344 L 2.789062 19.808594 C 2.730469 19.964844 2.667969 20.097656 2.660156 20.105469 C 2.628906 20.125 2.515625 20.378906 2.296875 20.878906 L 2.121094 21.28125 L 2.328125 21.300781 L 2.539062 21.316406 L 2.53125 21.621094 C 2.523438 22.015625 2.617188 22.335938 2.847656 22.691406 C 2.984375 22.902344 3.054688 22.972656 3.304688 23.148438 C 3.46875 23.261719 4.402344 23.914062 5.386719 24.59375 L 7.167969 25.835938 L 15.898438 25.832031 L 24.625 25.824219 L 25.039062 25.734375 C 26.566406 25.398438 27.65625 24.851562 29.058594 23.726562 L 29.402344 23.449219 L 29.441406 23.203125 C 29.472656 23.054688 29.488281 22.75 29.484375 22.425781 C 29.480469 21.945312 29.476562 21.867188 29.398438 21.613281 C 29.351562 21.457031 29.3125 21.320312 29.3125 21.3125 C 29.3125 21.300781 29.460938 21.300781 29.644531 21.304688 L 29.980469 21.316406 L 29.925781 21.230469 C 29.898438 21.183594 29.628906 20.78125 29.328125 20.335938 L 28.785156 19.527344 L 28.128906 19.527344 L 28.128906 18.914062 L 27.199219 18.914062 L 27.199219 19.527344 L 26.347656 19.527344 L 24.058594 18.011719 L 22.398438 18.011719 L 22.398438 17.785156 L 22.945312 17.785156 L 22.945312 15.757812 L 19.9375 15.757812 L 19.941406 14.257812 L 19.953125 12.761719 L 20.875 12.757812 L 21.792969 12.757812 L 21.792969 11.050781 L 21.503906 11.050781 C 21.347656 11.050781 21.214844 11.039062 21.214844 11.023438 C 21.214844 11.007812 22.105469 10.167969 23.195312 9.15625 C 24.277344 8.148438 25.210938 7.269531 25.265625 7.207031 C 25.320312 7.144531 25.628906 6.792969 25.957031 6.421875 C 26.632812 5.660156 27.148438 5.042969 27.605469 4.449219 C 27.972656 3.972656 28.449219 3.328125 28.449219 3.304688 C 28.449219 3.265625 27.429688 3.910156 26.734375 4.390625 C 25.210938 5.453125 24.34375 6.15625 22.867188 7.523438 C 20.769531 9.46875 19.878906 10.300781 19.46875 10.6875 L 19.082031 11.050781 L 18.660156 11.050781 C 18.429688 11.050781 18.238281 11.046875 18.238281 11.039062 C 18.238281 11.019531 18.394531 10.871094 20.289062 9.117188 C 22.164062 7.378906 22.144531 7.398438 22.859375 6.589844 C 23.855469 5.472656 24.644531 4.503906 25.1875 3.746094 C 25.539062 3.253906 25.535156 3.261719 25.390625 3.351562 C 24.25 4.039062 22.921875 4.976562 21.570312 6.039062 C 21.269531 6.273438 20.769531 6.722656 20.238281 7.222656 C 20.132812 7.320312 19.464844 7.941406 18.753906 8.605469 C 18.039062 9.265625 17.15625 10.089844 16.789062 10.429688 L 16.125 11.050781 L 15.871094 11.050781 C 15.730469 11.050781 15.617188 11.039062 15.617188 11.027344 C 15.617188 11.007812 18.4375 8.425781 18.714844 8.195312 L 18.796875 8.125 L 18.691406 7.988281 L 18.582031 7.851562 L 18.875 7.574219 C 19.035156 7.425781 19.261719 7.1875 19.378906 7.058594 C 19.496094 6.925781 19.65625 6.75 19.726562 6.671875 C 20.34375 5.980469 20.71875 5.546875 21.25 4.882812 C 21.710938 4.3125 22.449219 3.320312 22.425781 3.304688 C 22.421875 3.300781 22.289062 3.375 22.128906 3.472656 Z M 13.464844 10.792969 C 13.613281 10.867188 13.679688 10.9375 13.742188 11.09375 C 13.84375 11.332031 13.765625 11.617188 13.550781 11.78125 C 13.390625 11.90625 13.125 11.925781 12.933594 11.828125 C 12.519531 11.617188 12.519531 11.007812 12.933594 10.796875 C 13.105469 10.714844 13.308594 10.710938 13.464844 10.792969 Z M 3.9375 21.414062 C 3.847656 21.53125 3.847656 21.742188 3.941406 21.863281 C 4.257812 22.265625 4.832031 21.832031 4.554688 21.40625 L 4.503906 21.332031 L 5.441406 21.332031 L 5.460938 21.414062 C 5.472656 21.460938 5.472656 21.605469 5.464844 21.734375 C 5.4375 22.179688 5.160156 22.578125 4.742188 22.773438 C 4.582031 22.851562 4.523438 22.863281 4.238281 22.863281 C 3.9375 22.863281 3.902344 22.855469 3.699219 22.753906 C 3.234375 22.511719 2.945312 21.976562 3.019531 21.484375 L 3.042969 21.332031 L 4.003906 21.332031 Z M 9.402344 21.410156 C 9.480469 21.589844 9.734375 21.59375 9.777344 21.410156 C 9.796875 21.335938 9.8125 21.332031 10.019531 21.332031 C 10.140625 21.332031 10.238281 21.339844 10.238281 21.355469 C 10.238281 21.371094 10.222656 21.4375 10.203125 21.507812 C 10.0625 22.035156 9.375 22.160156 9.070312 21.714844 C 9.023438 21.648438 8.980469 21.535156 8.96875 21.464844 L 8.949219 21.332031 L 9.160156 21.332031 C 9.351562 21.332031 9.371094 21.335938 9.402344 21.410156 Z M 17.050781 21.410156 C 17.105469 21.539062 17.226562 21.578125 17.332031 21.507812 C 17.375 21.480469 17.425781 21.425781 17.429688 21.390625 C 17.445312 21.339844 17.476562 21.332031 17.652344 21.332031 L 17.855469 21.332031 L 17.855469 21.429688 C 17.855469 21.722656 17.5625 21.984375 17.226562 21.984375 C 16.917969 21.984375 16.609375 21.707031 16.609375 21.433594 L 16.609375 21.332031 L 16.808594 21.332031 C 16.996094 21.332031 17.019531 21.335938 17.050781 21.410156 Z M 21.324219 21.410156 C 21.371094 21.59375 21.621094 21.589844 21.703125 21.410156 C 21.734375 21.335938 21.753906 21.332031 21.945312 21.332031 L 22.152344 21.332031 L 22.132812 21.460938 C 22.0625 21.992188 21.335938 22.175781 21.015625 21.742188 C 20.945312 21.652344 20.863281 21.441406 20.863281 21.355469 C 20.863281 21.339844 20.964844 21.332031 21.085938 21.332031 C 21.292969 21.332031 21.304688 21.335938 21.324219 21.410156 Z M 28.121094 21.429688 C 28.375 21.558594 28.644531 21.84375 28.738281 22.09375 C 28.835938 22.347656 28.835938 22.726562 28.746094 22.964844 C 28.550781 23.464844 28.101562 23.78125 27.585938 23.78125 C 27.066406 23.78125 26.621094 23.46875 26.429688 22.972656 C 26.332031 22.726562 26.335938 22.347656 26.433594 22.09375 C 26.523438 21.847656 26.789062 21.558594 27.046875 21.429688 C 27.230469 21.335938 27.265625 21.332031 27.585938 21.332031 C 27.902344 21.332031 27.9375 21.335938 28.121094 21.429688 Z M 8.207031 22.121094 C 8.640625 22.234375 9.066406 22.570312 9.269531 22.960938 C 9.785156 23.9375 9.28125 25.125 8.226562 25.4375 C 8.011719 25.5 7.566406 25.503906 7.34375 25.441406 C 6.765625 25.289062 6.277344 24.800781 6.128906 24.226562 C 6.066406 24.007812 6.066406 23.554688 6.125 23.339844 C 6.273438 22.773438 6.769531 22.273438 7.332031 22.125 C 7.5625 22.0625 7.972656 22.058594 8.207031 22.121094 Z M 11.933594 22.121094 C 12.214844 22.195312 12.445312 22.328125 12.675781 22.550781 C 13.386719 23.21875 13.386719 24.339844 12.679688 25.007812 C 12.308594 25.363281 11.984375 25.488281 11.472656 25.488281 C 10.992188 25.484375 10.613281 25.316406 10.257812 24.941406 C 9.910156 24.570312 9.742188 24.039062 9.816406 23.535156 C 9.921875 22.867188 10.421875 22.296875 11.0625 22.121094 C 11.269531 22.0625 11.722656 22.0625 11.933594 22.121094 Z M 15.835938 22.121094 C 16.136719 22.199219 16.355469 22.328125 16.597656 22.574219 C 17.390625 23.363281 17.25 24.613281 16.308594 25.238281 C 15.777344 25.585938 15.039062 25.585938 14.507812 25.238281 C 13.558594 24.613281 13.425781 23.316406 14.238281 22.550781 C 14.464844 22.332031 14.699219 22.195312 14.964844 22.121094 C 15.175781 22.0625 15.625 22.0625 15.835938 22.121094 Z M 19.84375 22.125 C 20.4375 22.300781 20.925781 22.800781 21.054688 23.367188 C 21.097656 23.546875 21.09375 24.015625 21.054688 24.199219 C 20.925781 24.761719 20.410156 25.289062 19.835938 25.4375 C 19.605469 25.503906 19.160156 25.5 18.941406 25.4375 C 18.359375 25.265625 17.894531 24.789062 17.742188 24.214844 C 17.683594 23.96875 17.683594 23.597656 17.746094 23.347656 C 17.894531 22.769531 18.378906 22.277344 18.945312 22.125 C 19.183594 22.058594 19.625 22.058594 19.84375 22.125 Z M 23.921875 22.121094 C 24.5 22.273438 24.957031 22.730469 25.132812 23.324219 C 25.195312 23.542969 25.199219 23.992188 25.140625 24.214844 C 24.980469 24.816406 24.496094 25.292969 23.886719 25.457031 C 23.695312 25.503906 23.234375 25.496094 23.035156 25.4375 C 22.464844 25.265625 22.011719 24.8125 21.84375 24.234375 C 21.777344 24.011719 21.777344 23.59375 21.839844 23.34375 C 22.03125 22.605469 22.707031 22.074219 23.457031 22.070312 C 23.605469 22.070312 23.8125 22.09375 23.921875 22.121094 Z M 23.921875 22.121094 "/>
<path style=" stroke:none;fill-rule:nonzero;fill:rgb(0%,0%,0%);fill-opacity:1;" d="M 27.320312 22.261719 C 27.226562 22.347656 27.214844 22.375 27.214844 22.539062 C 27.214844 22.703125 27.226562 22.730469 27.320312 22.816406 C 27.496094 22.972656 27.65625 22.980469 27.835938 22.828125 C 28.007812 22.683594 28.007812 22.429688 27.839844 22.261719 C 27.761719 22.183594 27.722656 22.167969 27.585938 22.167969 C 27.453125 22.167969 27.40625 22.183594 27.320312 22.261719 Z M 27.320312 22.261719 "/>
<path style=" stroke:none;fill-rule:nonzero;fill:rgb(0%,0%,0%);fill-opacity:1;" d="M 7.601562 23.28125 C 7.441406 23.339844 7.3125 23.480469 7.261719 23.652344 C 7.183594 23.914062 7.367188 24.21875 7.640625 24.292969 C 8.015625 24.394531 8.375 24.050781 8.289062 23.671875 C 8.21875 23.351562 7.898438 23.171875 7.601562 23.28125 Z M 7.601562 23.28125 "/>
<path style=" stroke:none;fill-rule:nonzero;fill:rgb(0%,0%,0%);fill-opacity:1;" d="M 11.355469 23.265625 C 11.027344 23.363281 10.875 23.742188 11.046875 24.042969 C 11.253906 24.414062 11.785156 24.398438 11.96875 24.019531 C 12.003906 23.949219 12.03125 23.839844 12.03125 23.785156 C 12.03125 23.550781 11.847656 23.3125 11.628906 23.261719 C 11.484375 23.230469 11.46875 23.230469 11.355469 23.265625 Z M 11.355469 23.265625 "/>
<path style=" stroke:none;fill-rule:nonzero;fill:rgb(0%,0%,0%);fill-opacity:1;" d="M 15.257812 23.265625 C 15.027344 23.335938 14.878906 23.535156 14.878906 23.777344 C 14.878906 24.078125 15.105469 24.308594 15.40625 24.308594 C 16.066406 24.308594 16.125 23.339844 15.472656 23.253906 C 15.402344 23.246094 15.304688 23.25 15.257812 23.265625 Z M 15.257812 23.265625 "/>
<path style=" stroke:none;fill-rule:nonzero;fill:rgb(0%,0%,0%);fill-opacity:1;" d="M 19.222656 23.277344 C 18.984375 23.363281 18.878906 23.523438 18.878906 23.785156 C 18.878906 24.261719 19.398438 24.484375 19.761719 24.164062 C 19.957031 23.988281 19.984375 23.65625 19.816406 23.453125 C 19.664062 23.273438 19.425781 23.203125 19.222656 23.277344 Z M 19.222656 23.277344 "/>
<path style=" stroke:none;fill-rule:nonzero;fill:rgb(0%,0%,0%);fill-opacity:1;" d="M 23.3125 23.28125 C 22.945312 23.414062 22.839844 23.875 23.117188 24.152344 C 23.390625 24.429688 23.847656 24.328125 23.984375 23.957031 C 24.144531 23.542969 23.730469 23.125 23.3125 23.28125 Z M 23.3125 23.28125 "/>
</g>
</svg>
